inDegrees=no
num_controls=7
num_derivatives=13
num_iterations=91
num_multipliers=7
num_parameters=0
num_slacks=7
num_states=26
objective=0.410794
objective_accelerations=0.071980
objective_balance=0.001616
objective_effort=0.018243
objective_height=0.313227
objective_ligament=0.005728
solver_duration=1328.954407
status=Solve_Succeeded
success=true
DataType=double
version=3
OpenSimVersion=4.5
endheader
time	/jointset/ground_pelvis/pelvis_tilt/value	/jointset/ground_pelvis/pelvis_tx/value	/jointset/ground_pelvis/pelvis_ty/value	/jointset/hip_l/hip_flexion_l/value	/jointset/hip_l/hip_adduction_l/value	/jointset/hip_l/hip_rotation_l/value	/jointset/back/lumbar_extension/value	/jointset/patellofemoral_l/patellar_flexion_l/value	/jointset/knee_l/knee_flexion_l/value	/jointset/knee_l/knee_adduction_l/value	/jointset/knee_l/knee_rotation_l/value	/jointset/ankle_l/ankle_angle_l/value	/jointset/subtalar_l/subtalar_angle_l/value	/jointset/ground_pelvis/pelvis_tilt/speed	/jointset/ground_pelvis/pelvis_tx/speed	/jointset/ground_pelvis/pelvis_ty/speed	/jointset/hip_l/hip_flexion_l/speed	/jointset/hip_l/hip_adduction_l/speed	/jointset/hip_l/hip_rotation_l/speed	/jointset/back/lumbar_extension/speed	/jointset/patellofemoral_l/patellar_flexion_l/speed	/jointset/knee_l/knee_flexion_l/speed	/jointset/knee_l/knee_adduction_l/speed	/jointset/knee_l/knee_rotation_l/speed	/jointset/ankle_l/ankle_angle_l/speed	/jointset/subtalar_l/subtalar_angle_l/speed	/forceset/tau_hip_flexion_l	/forceset/tau_hip_adduction_l	/forceset/tau_hip_rotation_l	/forceset/tau_knee_flexion_l	/forceset/tau_ankle_angle_l	/forceset/tau_subtalar_angle_l	/forceset/tau_lumbar_extension	lambda_cid13_p0	lambda_cid13_p1	lambda_cid13_p2	lambda_cid13_p3	lambda_cid13_p4	lambda_cid13_p5	lambda_cid14_p0	/jointset/ground_pelvis/pelvis_tilt/accel	/jointset/ground_pelvis/pelvis_tx/accel	/jointset/ground_pelvis/pelvis_ty/accel	/jointset/hip_l/hip_flexion_l/accel	/jointset/hip_l/hip_adduction_l/accel	/jointset/hip_l/hip_rotation_l/accel	/jointset/back/lumbar_extension/accel	/jointset/patellofemoral_l/patellar_flexion_l/accel	/jointset/knee_l/knee_flexion_l/accel	/jointset/knee_l/knee_adduction_l/accel	/jointset/knee_l/knee_rotation_l/accel	/jointset/ankle_l/ankle_angle_l/accel	/jointset/subtalar_l/subtalar_angle_l/accel	gamma_cid13_p0	gamma_cid13_p1	gamma_cid13_p2	gamma_cid13_p3	gamma_cid13_p4	gamma_cid13_p5	gamma_cid14_p0
1	-0.5271122340748357	-0.02151180421859641	0.4800505024403898	2.082743431069675	-0.3252083429788172	0.1844911375032536	-0.4363308567547338	1.790291158981277	1.790291158981271	0.1431697815646764	-0.1745314762747238	0.4346563195154552	0.2834646246087875	-0.1523275730951866	-0.01069738087257541	0.03982040573034589	0.01976480924035957	-0.003011871776498642	-0.04999271572483083	0.0001008068750498041	-0.1633977624782599	-0.16339776247826	-0.02213463249683036	1.076069303292265e-05	-0.04720547935304226	-0.0361969107608585	-0.292316127537267	0.02872365489136592	-0.03845713040190773	-0.3017886703868581	-0.04794229962265292	0.002767673066960108	0.2394140514660295	-51.81163484979844	15.72295398176168	-11.7578224529754	19.27849505029286	-567.0817842417247	-55.32653179281755	-0.02204875393990324	1.396264500244689	-0.1726833477489234	2.621964418412416	-8.038803517323794	-0.4071793104222922	-1.864508381228838	-0.01242552234659887	-6.688210221708564	-6.688210221708548	-1.225954389758052	-0.03262180495112173	-0.6616943447210238	-1.08540032873304	7.170115950400751e-09	-2.541336154631149e-07	-2.282594296118809e-07	-3.576232721355061e-08	-2.812959236319829e-08	-6.435984576452476e-07	4.704143738924444e-08
1.01	-0.5285664074593087	-0.02162730997638261	0.4805796217844378	2.082540020602124	-0.3252578104050702	0.1839027137141446	-0.436329618947869	1.788323176796099	1.788323176796099	0.1428835812491279	-0.1745313509975603	0.4341512652806501	0.2830500844413814	-0.1384945588192643	-0.01238567967511289	0.06599414073558051	-0.06042947006810057	-0.006874271542805639	-0.06767913127866348	0.0001423596206771958	-0.2301860508491599	-0.23018605084916	-0.03509560426760818	1.454795248793785e-05	-0.05381739950472658	-0.04670064274249419	-0.2924942638381493	0.02869634984735187	-0.03834995976761212	-0.3012640197880834	-0.04758393560088599	0.002810640175714256	0.2394849482529149	-51.64390581337671	15.65695164319404	-11.72677003151771	18.90644284110688	-566.8880993403034	-55.27447934162647	-0.02207345445591363	1.378704332947835	-0.1642010093932923	2.613671084697878	-8.007123026338471	-0.3746276215281714	-1.71876415374652	0.01178644133034707	-6.672257695143964	-6.672257695143964	-1.329679357349297	0.0168209393063239	-0.6627562381220594	-1.031194435832456	1.185823218780721e-08	-3.400752771372522e-07	-3.281500400310613e-07	-5.735352742018449e-08	-4.287768645901347e-08	-8.692381742754531e-07	6.53479841998609e-08
1.02	-0.5298818738126863	-0.02175915829477162	0.4813701970871619	2.081535190763742	-0.3253456732913449	0.1831378145672398	-0.4363280974598843	1.78568768781714	1.785687687817145	0.142468069058549	-0.1745311994582188	0.4335797287667821	0.2825308399935683	-0.1245861668760689	-0.01396589299313495	0.09211159746557089	-0.1405190649258151	-0.01069096378084322	-0.08528778728393784	0.0001575430988217215	-0.2968991212345898	-0.2968991212345896	-0.04799700750285216	1.601312844341582e-05	-0.06050193516560767	-0.05713776684227471	-0.2926724001390295	0.02866904480333719	-0.03824278913331722	-0.3007393691893089	-0.04722557157911969	0.002853607284466942	0.2395558450398026	-51.47633508602598	15.58918029067695	-11.69338265428229	18.5386232781364	-566.7539887011536	-55.21138783901979	-0.02210569942193553	1.411340033699299	-0.1510662508458359	2.610708763363573	-8.017866627174669	-0.3980378047684105	-1.848956471517174	-0.01769937584320335	-6.673166624614521	-6.673166624614447	-1.214040682651287	-0.03308622165103159	-0.6762174465603743	-1.072078752362009	1.623143526922798e-08	-4.199785614683842e-07	-4.20988027602867e-07	-7.837834143041371e-08	-5.638050510034025e-08	-1.069558583683233e-06	8.126883392989258e-08
1.03	-0.5310577383309922	-0.02190616233242769	0.4824215685852163	2.079730157263528	-0.3254714298179402	0.1821971234171106	-0.4363265246672798	1.782385628104872	1.782385628104907	0.1419240919866876	-0.1745310379252601	0.432940894908119	0.2819075926978682	-0.1105609538886475	-0.01540631610272246	0.1181437821116341	-0.2204538849193801	-0.01444767847299509	-0.1028318744835948	0.000156334848364962	-0.3634821417742471	-0.3634821417742466	-0.06077824240433646	1.681729692522889e-05	-0.06728506646639658	-0.0674958234095754	-0.2925893584923593	0.02861140467832957	-0.03804452480084865	-0.3001691532146387	-0.04659780264321494	0.002994657243989516	0.2394929228095054	-51.18249252722126	15.44650453390101	-11.63640581272797	18.0096907003265	-566.3601634678535	-55.25706627239492	-0.02214530936454604	1.401982447498545	-0.1362605825719409	2.596621254293051	-7.976224834125847	-0.3625219495344589	-1.704338467179533	0.008566364196756909	-6.646287381334998	-6.646287381335008	-1.307117851278286	0.01659511462682876	-0.6824103486925168	-1.015147728358893	2.060142495109788e-08	-4.998202297041794e-07	-5.137540496354138e-07	-9.939737598965921e-08	-6.987061684927428e-08	-1.269620632813232e-06	9.716533981216319e-08
1.04	-0.5320925766161769	-0.02206671664949098	0.4837326915175446	2.077126788533644	-0.3256343602210763	0.1810815506703866	-0.4363249843744088	1.778418654664669	1.778418654664734	0.1412529119743351	-0.1745308820749089	0.4322336198610773	0.2811812691126061	-0.0963809202518269	-0.0166759488745785	0.1440618843203118	-0.3001861108600826	-0.01812573908898211	-0.1202641066028347	0.0001510431516549409	-0.4298818668216513	-0.4298818668216511	-0.07343759560107221	1.487660656875436e-05	-0.07419017284136008	-0.07775302475466783	-0.2925063168456872	0.02855376455332116	-0.03784626046838018	-0.2995989372399687	-0.04597003370731086	0.003135707203510339	0.23943000057921	-50.88921099340565	15.30215729863733	-11.57714044775598	17.48611130992399	-566.0275890311979	-55.29258522101787	-0.02219143083396758	1.442304163579117	-0.1169081832995381	2.587892275886449	-7.977347816602153	-0.3823069895354413	-1.826585455433749	-0.01851606509387847	-6.636507526163919	-6.636507526163928	-1.189664341701577	-0.03363519341868822	-0.7006124613952885	-1.051907707920358	2.308777288906574e-08	-5.727818835347111e-07	-6.028171282791569e-07	-1.133249710971787e-07	-8.22378832610411e-08	-1.454086325424895e-06	1.126393697736121e-07
